<svg xmlns="http://www.w3.org/2000/svg" viewBox="0 0 200 200"><defs><radialGradient id="p" cx=".42" cy=".72" r=".85"><stop stop-color="#e5b6ff"/><stop offset=".48" stop-color="#a747d5"/><stop offset="1" stop-color="#6b239f"/></radialGradient><radialGradient id="c"><stop stop-color="#fff1b7"/><stop offset=".4" stop-color="#e6b7ff"/><stop offset="1" stop-color="#632280"/></radialGradient></defs><g transform="rotate(0.0 100 100)"><path d="M100 97 C63.9 74 77.2 26 100 10 C122.8 26 136.1 74 100 97Z" fill="url(#p)" stroke="#f4b7ff" stroke-opacity=".52" stroke-width="1"/><path d="M100 88 Q94 50 100 20" fill="none" stroke="#ffd8ff" stroke-opacity=".36" stroke-width="1.5"/></g><g transform="rotate(45.0 100 100)"><path d="M100 97 C63.9 74 77.2 26 100 10 C122.8 26 136.1 74 100 97Z" fill="url(#p)" stroke="#f4b7ff" stroke-opacity=".52" stroke-width="1"/><path d="M100 88 Q94 50 100 20" fill="none" stroke="#ffd8ff" stroke-opacity=".36" stroke-width="1.5"/></g><g transform="rotate(90.0 100 100)"><path d="M100 97 C63.9 74 77.2 26 100 10 C122.8 26 136.1 74 100 97Z" fill="url(#p)" stroke="#f4b7ff" stroke-opacity=".52" stroke-width="1"/><path d="M100 88 Q94 50 100 20" fill="none" stroke="#ffd8ff" stroke-opacity=".36" stroke-width="1.5"/></g><g transform="rotate(135.0 100 100)"><path d="M100 97 C63.9 74 77.2 26 100 10 C122.8 26 136.1 74 100 97Z" fill="url(#p)" stroke="#f4b7ff" stroke-opacity=".52" stroke-width="1"/><path d="M100 88 Q94 50 100 20" fill="none" stroke="#ffd8ff" stroke-opacity=".36" stroke-width="1.5"/></g><g transform="rotate(180.0 100 100)"><path d="M100 97 C63.9 74 77.2 26 100 10 C122.8 26 136.1 74 100 97Z" fill="url(#p)" stroke="#f4b7ff" stroke-opacity=".52" stroke-width="1"/><path d="M100 88 Q94 50 100 20" fill="none" stroke="#ffd8ff" stroke-opacity=".36" stroke-width="1.5"/></g><g transform="rotate(225.0 100 100)"><path d="M100 97 C63.9 74 77.2 26 100 10 C122.8 26 136.1 74 100 97Z" fill="url(#p)" stroke="#f4b7ff" stroke-opacity=".52" stroke-width="1"/><path d="M100 88 Q94 50 100 20" fill="none" stroke="#ffd8ff" stroke-opacity=".36" stroke-width="1.5"/></g><g transform="rotate(270.0 100 100)"><path d="M100 97 C63.9 74 77.2 26 100 10 C122.8 26 136.1 74 100 97Z" fill="url(#p)" stroke="#f4b7ff" stroke-opacity=".52" stroke-width="1"/><path d="M100 88 Q94 50 100 20" fill="none" stroke="#ffd8ff" stroke-opacity=".36" stroke-width="1.5"/></g><g transform="rotate(315.0 100 100)"><path d="M100 97 C63.9 74 77.2 26 100 10 C122.8 26 136.1 74 100 97Z" fill="url(#p)" stroke="#f4b7ff" stroke-opacity=".52" stroke-width="1"/><path d="M100 88 Q94 50 100 20" fill="none" stroke="#ffd8ff" stroke-opacity=".36" stroke-width="1.5"/></g><circle cx="100" cy="100" r="13" fill="url(#c)"/><g fill="#f9d9ff"><circle cx="107.00" cy="100.00" r="1.7"/><circle cx="105.36" cy="104.50" r="1.7"/><circle cx="101.22" cy="106.89" r="1.7"/><circle cx="96.50" cy="106.06" r="1.7"/><circle cx="93.42" cy="102.39" r="1.7"/><circle cx="93.42" cy="97.61" r="1.7"/><circle cx="96.50" cy="93.94" r="1.7"/><circle cx="101.21" cy="93.11" r="1.7"/><circle cx="105.36" cy="95.50" r="1.7"/></g></svg>